<?xml version="1.0" encoding="utf-8"?>
<!-- Generator: Adobe Illustrator 16.0.0, SVG Export Plug-In . SVG Version: 6.00 Build 0)  -->
<!DOCTYPE svg PUBLIC "-//W3C//DTD SVG 1.1//EN" "http://www.w3.org/Graphics/SVG/1.1/DTD/svg11.dtd">
<svg version="1.1" id="Layer_1" xmlns="http://www.w3.org/2000/svg" xmlns:xlink="http://www.w3.org/1999/xlink" x="0px" y="0px"
	 width="612px" height="792px" viewBox="0 0 612 792" enable-background="new 0 0 612 792" xml:space="preserve">
<g>
	<path fill="#52BA63" d="M597.01,597.879c0,38.998-31.619,70.617-70.617,70.617H85.608c-39.001,0-70.618-31.619-70.618-70.617
		V157.092c0-39.001,31.617-70.618,70.618-70.618h440.785c38.998,0,70.617,31.617,70.617,70.618V597.879z"/>
	<g>
		<text transform="matrix(1 0 0 1 40.46 596.2656)" font-family="'Heavitas'" font-size="404.6636">M</text>
		<g>
			<path fill="#010101" d="M481.061,208.096c3.951,4.164,22.506,21.115,39.572,48.714c10.197,16.494,18.611,33.987,22.082,43.223
				c3.471,9.237,12.262,25.668-5.322,31.261c-16.318,5.184-21.604-17.355-23.885-23.561c-2.279-6.197-19.244-40.877-39.709-63.27
				c-20.77-22.728-22.271-25.024-41.133-39.207c-18.873-14.183-32.746-21.752-35.246-23.154c-2.498-1.396-13.428-8.763-4.34-21.745
				c8.543-12.217,28.42,0.983,38.955,7.797c10.533,6.812,25.646,18.889,29.424,21.972
				C465.246,193.211,479.133,206.072,481.061,208.096z"/>
			<path fill="#010101" d="M449.104,240.763c3.068,3.228,17.48,16.393,30.729,37.819c7.918,12.806,14.447,26.381,17.143,33.554
				c2.697,7.169,9.521,19.927-4.141,24.267c-12.662,4.028-16.771-13.476-18.535-18.29c-1.766-4.812-14.939-31.738-30.832-49.124
				c-16.117-17.64-17.285-19.422-31.938-30.43c-14.641-11.013-25.412-16.893-27.355-17.977c-1.945-1.086-10.426-6.799-3.365-16.883
				c6.631-9.48,22.066,0.762,30.238,6.054c8.18,5.288,19.906,14.668,22.852,17.058C436.826,229.206,447.607,239.184,449.104,240.763
				z"/>
			<path fill="#010101" d="M424.254,268.563c2.154,2.273,12.297,11.534,21.627,26.62c5.572,9.014,10.168,18.57,12.061,23.623
				c1.902,5.043,6.705,14.028-2.908,17.083c-8.918,2.831-11.811-9.489-13.049-12.881c-1.244-3.384-10.512-22.339-21.701-34.579
				c-11.346-12.411-12.168-13.675-22.477-21.419c-10.311-7.75-17.898-11.886-19.26-12.656c-1.371-0.764-7.346-4.786-2.379-11.881
				c4.674-6.675,15.535,0.534,21.295,4.257c5.748,3.726,14.016,10.329,16.078,12.009
				C415.609,260.423,423.197,267.449,424.254,268.563z"/>
		</g>
	</g>
</g>
</svg>
